<?xml version="1.0" encoding="UTF-8"?>
<svg version="1.1" viewBox="0 0 1600 956" width="400" height="239" xmlns="http://www.w3.org/2000/svg">
<path transform="translate(1282)" d="m0 0h9l16 8 84 38 36 16 35 16 27 12 40 18 9 5v2h-48l-99-1v361l-3 1-1013 1-24 6-20 3h-33l-18-3-18-6-14-7-11-8-10-9-12-13-19-6-16-6-16-8-10-6-11-9-6-5-9-11-8-13-5-14-2-11v-16l2-14 5-16 7-16 9-14 8-10 12-13 13-12 15-11 20-12 25-12 22-8 28-8 35-7 19-2v-2l-6-2-9-7-7-7-7-14-2-8v-13l2-10 5-12 6-10 11-12 14-11 9-6-4-2-47-9-30-4-27-2h-23l-32 3-30 6-23 7-23 10-15 8-16 10-13 10-10 9-7 6-9 11-8 11-6 10-5 11-5 17-3 17v19l4 20 8 16 9 11 12 9 11 4 5 1h18l5-3-15-3-6-7-1-10 3-8 4-5 12-6h14l8 4 4 6 2 11-2 8-6 10-10 7-9 4-7 1h-13l-13-3-12-6-10-8-10-11-10-17-6-17-2-6v-46l3-8 8-21 7-13 12-17 12-14 8-8 11-9 14-10 18-10 16-7 21-7 22-5 24-3 13-1h38l31 3 35 5 35 7 30 7 7-1 24-9 25-6 24-3 15-1h17l25 2 18 3 20 6 16 8 8 6 5 6 3 9-1 7-8 9-9 4-16 2h-13l-25-3-50-10-54-13-10-1-10 7-14 11-11 12-8 14-3 7-3 15v16l3 10 6 8 3 3 42-1 14 1 10 3 2 2-1 5-6 3h-25l-28-4h-12l-22 5-21 7-30 13-23 12-21 13-12 9-11 9-19 19-11 16-7 12-8 22-3 16-1 9v14l3 18 5 12 7 11 8 8 11 7 12 6 14 5-6-15-4-18v-19l3-18 6-18 8-16 7-11 9-12 12-13 12-12 11-9 18-13 15-9 16-8 20-8 23-6 18-3h40l14 3 12 5 12 8 9 9 6 10 4 10 1 5v26l-3 16-8 20-9 15-11 14-18 18-11 9-15 11-20 12-25 12-33 11-24 5-15 2-15 1h-20l-19-1 7 8 10 9 13 8 15 6 16 4 18 2h16l21-2 21-5 13-4 15-5 20-9 19-11 11-8 9-7 13-11 15-15 9-11 10-14 1-2 4-1h854l5 1v-277l1-1 77 2h28l-20-9-54-23-58-25-44-19h-7l-55 13-51 11-48 9-50 8-64 8-45 4-38 2h-38l-25-1v-4l47-1 51-4 53-7 41-7 60-12 55-13 42-11 49-14 10-3zm-818 48-22 2-19 4-18 6-14 6 3 3 19 6 40 10 27 5 23 3 12 1h22l9-2 6-4 4-4v-10l-7-8-15-8-16-5-24-4-15-1zm-62 181-22 2-18 4-18 6-23 11-16 10-14 10-11 9-11 10-8 7-8 8-9 11-13 18-10 19-6 18-3 16v18l4 15 5 10 2 2 14 2 24 1 25-2 20-4 18-5 22-9 16-8 18-10 19-13 14-11 10-9 3-2v-2l4-2 11-12 11-14 7-12 6-15 3-14v-20l-2-9-5-9-9-10-12-8-15-5-18-2zm-316 42m623 124-3 3-14 36-5 15h8l4-9 1-2h23l3 11h8l-2-9-15-40-3-5zm69 0-2 1v53h33l1-1v-6l-24-1-1-1-1-44zm127 0-2 1v53h35l1-1v-6l-2-1h-26v-15l24-1v-7h-24l1-14 26-1v-7l-9-1zm87 0-6 3-4 5-1 3v8l5 7 8 4 11 4 3 1v10l-5 2h-8l-5-3-4-6h-6l1 7 4 6 8 4h11l7-3 5-5 2-5-1-7-4-6-8-4-13-5-2-2v-6l4-4 5-1 6 3 5 6h6l-1-7-6-7-4-2zm65 0-2 1v7l16 1v45h8l1-44 15-2 1-7-3-1zm92 0-3 3-15 40-4 11h8l3-5 2-6h22l5 11 8 1-3-11-15-40-3-4zm59 0-1 1v7l14 1 1 1 1 44h8v-45l16-1 1-7-3-1zm82 0v54h36v-6l-1-1-26-1-1-4v-10l1-1 23-1v-7h-24v-15h26l1-1v-7zm-751 0-9 1v53h8l1-20h10l2 5 7 13 2 2 7 1 1-3-8-14-2-3v-3l8-6 2-3v-10l-4-8-7-4zm79 0-5 1v53h35l1-4-1-3-26-1-1-16h23l1-1v-6h-24v-15h27v-7l-15-1z" fill="#fff"/>
<path transform="translate(1416,127)" d="m0 0h78l2 2v37l-1 191-11 13-13 17-3 1-1-19v-118l-10 9-11 9-1 1-1 135-1 19-16 17-22 22h-3l-1-45v-240l1-50z" fill="#fff"/>
<path transform="translate(1111,133)" d="m0 0h198l2 4v67l-1 4-4-1-6-16-7-17-7-11-9-10-10-6-12-4-12-2-53-1v88l19-2 11-4 6-5h2v-2h2l2-4 6-10 5-15 4-18h5l1 6v118l-5 1-3-8-5-19-4-9-5-8-5-6-11-6-6-2-19-2v83h28l20-1 16-3 13-5 12-8 12-12 8-14 5-12 5-15 5-3 1 1 1 76-3 3h-201l-3-1 1-5 20-3 8-4 6-7 3-8 1-10v-117l-2-11-3-6-4-5-8-4-21-3-1-5z" fill="#fff"/>
<path transform="translate(870,133)" d="m0 0h221l1 95-1 3-4-1-2-4-3-17-7-21-9-17-7-9-9-9-11-7-12-4-15-2-11-1 1 152 2 8 4 7 6 5 10 4 39 1 1 1v5l-2 1h-162l-3-1 1-5 2-1 37-1 11-4 6-5 4-8 1-5 1-154-25 2-12 4-11 7-9 8-10 14-9 19-4 13-4 21-2 4-4-1-1-95z" fill="#fff"/>
<path transform="translate(496,133)" d="m0 0h127l1 5-1 1-27 2-10 5-5 6-3 7-1 5-1 153 47-1 13-1 15-5 11-7 7-6 1-2h2l2-4 7-10 8-15 9-26 3-3 4 1v84l-2 1h-207l-3-1 1-5 10-1 12-2 8-4 7-8 3-11v-127l-4-12-5-6-9-4-21-3-2-1 1-4z" fill="#fff"/>
<path transform="translate(731,133)" d="m0 0h116l1 1v5l-19 2-10 5-6 7-3 9-1 26v93l1 13 3 9 5 6 10 5 18 2 3 3-1 3-2 1h-114l-4-1v-5l1-1 15-1 9-3 6-4 4-5 3-7 1-12v-107l-1-16-4-10-4-5-9-4-20-3-1-5z" fill="#fff"/>
<path transform="translate(804,536)" d="m0 0h9l9 3 7 7 4 11v8l-3 7-4 6-8 6-5 1 6 9 11 13 9 11 8 7 2-5 7-11 3-6v-10l-4-6-4-2-14-2v-4h58l1 4-13 3-8 6-6 7-10 16-9 13v4l4 2 8 7 10 4h8l6-4 4-5 4-12 1-8 4-1 1 6-3 14-6 11-7 7-14 7-9 2-13-1-10-4-10-7-3-1-15 7-13 4-20 2-18-2-12-4-8-6-6-7-2-7 1-10 4-8 9-9 14-8 15-6 9-3-2-9-1-5v-15l4-11 4-6 8-7zm-1 5-7 5-2 3v8l8 16 7 9 4-1 7-5 2-3v-11l-4-12-6-7-4-2zm-18 55-14 6-8 7-3 6v14l5 12 5 6 10 6 4 1h16l15-5 7-4-6-8-8-9-12-16-9-15z" fill="#fff"/>
<path transform="translate(949,605)" d="m0 0h651v11l-654-1v-9z" fill="#fff"/>
<path transform="translate(616,605)" d="m0 0h43l1 1v9h-654v-9z" fill="#fff"/>
<path transform="translate(150,745)" d="m0 0h92l14 2 11 4 9 8 4 11v7l-3 6-7 8-11 5-14 3-19 1 1 3 16 7 10 4 6 7 10 15 6 7 6 3 11 1 2 1v3h-41l-10-13-19-28-6-8v-2h-24l1 35 4 8 7 3 10 2v3h-68l1-3 13-3 5-3 3-7v-74l-4-8-8-3-8-1zm44 4v47h37l10-2 8-6 3-3 2-7v-10l-3-9-4-5-10-4-8-1z" fill="#fff"/>
<path transform="translate(1079,743)" d="m0 0h24l13 3 14 7 10 8 8 10 6 12 2 8v15l-4 13-7 11-10 10-14 8-16 5-7 1h-11l-16-3-16-8-8-6-8-8-6-10-4-12v-18l5-13 7-11 11-10 14-8zm6 4-8 3-10 9-7 14-3 13v24l4 16 5 10 6 7 12 6h16l8-3 9-7 6-9 4-13 1-5v-26l-2-10-5-12-6-8-8-6-8-3z" fill="#fff"/>
<path transform="translate(356,743)" d="m0 0h25l15 4 11 6 10 8 7 8 7 14 2 7v16l-4 13-7 11-10 10-14 8-16 5-7 1h-9l-17-3-12-5-11-7-9-9-8-14-3-10v-15l4-13 9-14 10-9 14-8zm7 4-9 3-10 9-6 12-4 16v22l3 14 4 10 9 10 8 5 4 1h16l9-4 9-8 6-12 3-12v-29l-3-12-6-12-8-8-8-4-4-1z" fill="#fff"/>
<path transform="translate(575,745)" d="m0 0h111l1 6v36l-4-2-6-15-6-10-6-5-7-3-14-2-25-1v49l14-2 8-6 5-8 3-9 2-8 3-1 1 7-1 64-4-1-3-14-5-10-5-5-10-3-8-1v46l31-1 10-3 9-6 4-2 2-4 4-6 7-18 3-1 1 8v36l-1 1h-116v-3l13-2 7-5 2-5v-74l-2-6-4-4-6-2-9-2-1-2z" fill="#fff"/>
<path transform="translate(855,743)" d="m0 0h23l15 4 17 8h5l6-8h3v37h-3l-3-4-7-14-8-8-14-7-11-3h-20l-10 6-4 8 1 7 4 5 12 5 41 11 15 6 10 9 4 8 1 4v8l-4 11-7 8-9 6-11 3h-22l-16-5-14-5h-7l-5 2-7 9-2-2v-47l1-2 3 1 6 16 7 10 12 9 16 7 8 2h18l10-4 5-6 1-2v-9l-4-6-12-6-24-7-26-8-11-6-5-5-4-5-2-5v-10l4-10 6-7 10-6z" fill="#fff"/>
<path transform="translate(15,745)" d="m0 0h78l16 2 10 3 10 6 6 9 2 7-1 10-5 9-7 6-10 4-14 3-10 1h-17l-13-1 1 28 2 8 1 3 4 2 17 3v3h-71v-3l13-2 7-5 2-5v-76l-3-6-6-3-13-3zm45 4v51h30l8-2 8-6 3-4 2-8v-11l-4-11-7-6-6-2-10-1z" fill="#fff"/>
<path transform="translate(735,743)" d="m0 0h22l13 3 21 9 5-1 5-7h3v36h-4l-9-17-7-7-10-6-11-4-5-1h-20l-10 6-4 7v6l4 6 10 5 29 8 21 6 12 6 7 7 3 5 2 13-3 10-8 11-10 6-10 3h-22l-16-5-15-5-10 1-4 5-5 5-1-2v-48h4l4 12 6 10 4 5 13 9 11 5 11 3h18l9-4 5-5 2-3v-8l-4-7-12-6-41-12-13-5-10-6-6-8-2-5v-11l6-12 8-7 11-5z" fill="#fff"/>
<path transform="translate(1173,745)" d="m0 0h41l30 30 7 8 21 21 7 8 7 7v-32l-1-21-4-9-5-4-15-5v-2l5-1h49v3l-1 1-10 2-5 3h-2l-2 4-3 8-2 87-4-2-24-24-7-8-28-28-7-8-22-22 1 72 2 7h2v2l5 2 7 2 11 2v3h-57l2-4 13-3 7-6 1-3v-76l-2-4-8-4-11-3v-2z" fill="#fff"/>
<path transform="translate(448,745)" d="m0 0h115l1 1v46l-3-1-7-20-7-11-8-6-10-3-9-1h-26l-1 43 14-1 6-4 5-6 6-17h3v61l-4-1-4-14-6-9-10-4-10-1 1 37 2 6 5 5 3 1 13 1 3 1v3h-72v-3l13-3 5-3 3-7v-74l-4-8-4-2-12-2z" fill="#fff"/>
<path transform="translate(1456,745)" d="m0 0h71v4l-13 1-9 4-3 9-1 84 36-1 12-6 7-7 7-12 6-16 4-2v47l-1 1h-117l2-4 11-1 7-5 2-5v-76l-4-7-4-2-13-2z" fill="#fff"/>
<path transform="translate(1382,742)" d="m0 0 4 2 17 36 15 33 12 26 4 5 4 2 10 2v3h-62l-1-3 2-1 16-1 2-5-4-12-4-9h-43l-3 3-3 9 1 7 5 5 9 4v3h-44v-3l11-4 8-7 5-8 15-33 9-21 11-24zm-8 28-5 10-8 19-6 14 1 2h38l-1-5-12-27-5-12z" fill="#fff"/>
<path transform="translate(945,745)" d="m0 0h67l-1 4-12 2-5 3-3 6v76l3 6 4 3 14 3 1 3h-69v-3l12-2 7-4 3-9v-72l-3-6-5-4-12-2z" fill="#fff"/>
<path transform="translate(291,893)" d="m0 0h8l3 3 12 26 6 14v2h2l3-9 9-20 7-15 2-1h8l1 4-1 59h-9l-1-1-1-35-9 19-7 16-1 1h-5l-11-23-6-13v28l-1 8h-10v-62z" fill="#fff"/>
<path transform="translate(963,893)" d="m0 0h8l4 5 11 24 6 14v2h2l3-9 9-20 7-14 2-2h8v63h-10l-1-36-9 19-8 17h-5l-11-23-6-13v25l-1 11h-10v-62z" fill="#fff"/>
<path transform="translate(761,892)" d="m0 0h12l9 3 7 6 5 8v5l-9-1-6-5v-2l-9-3-8 1-7 4-4 7-1 3v13l5 8 1 3 6 2h11l6-4 4-5-1-2h-11l-3-1v-9l26-1 2 3v18l-1 13h-6l-2-7-7 4-4 3h-19v-2l-5-2-5-4-6-9-3-7-1-11 3-11 6-9 7-6z" fill="#fff"/>
<path transform="translate(523,893)" d="m0 0h8l5 4 24 36 1-40h10l1 1v61l-1 1h-9l-3-5-16-23-8-12-2-1v41h-10l-1-8v-54z" fill="#fff"/>
<path transform="translate(1192,893)" d="m0 0 9 1 7 9 9 13 8 12 3 4 1-38 1-1h9l1 1v62h-10l-4-7-10-14-8-12-6-8v21l-1 20h-10l-1-26v-35z" fill="#fff"/>
<path transform="translate(1088,893)" d="m0 0h41v9l-1 1h-30l1 2v12l26 1 1 1v9h-28l1 6-1 10h30l2 2v9l-1 1h-41l-1-27v-35z" fill="#fff"/>
<path transform="translate(859,893)" d="m0 0h41v10h-30v15h26l1 1v9h-27v16h30l1 1v11h-42z" fill="#fff"/>
<path transform="translate(657,892)" d="m0 0 6 2 5 12 15 41 2 9h-10l-6-14h-25l-1 6-4 8h-10l5-16 11-30 6-15 2-2zm0 16-8 20v3h16l-3-11-4-12z" fill="#fff"/>
<path transform="translate(436,892)" d="m0 0 5 1 3 3 17 46 4 14h-11l-4-11v-3h-26l-3 10-2 4h-10l4-14 11-30 7-17zm1 17-3 5-6 17 17 1-3-11-4-12z" fill="#fff"/>
<path transform="translate(1300,893)" d="m0 0h45l1 1v8l-1 1h-17v51l-1 2h-10l-1-48 1-5h-18l-1-8z" fill="#fff"/>
<path transform="translate(540,403)" d="m0 0h13l5 3 2 2v8l-4 4-3 1h-14l-1-1v-16z" fill="#fff"/>
<path transform="translate(1150,407)" d="m0 0 3 1 6 18v3l-3 1h-13l1-6z" fill="#fff"/>
<path transform="translate(710,407)" d="m0 0 3 2 6 17v3l-3 1h-13l1-7z" fill="#fff"/>
<path transform="translate(974,924)" d="m0 0" fill="#fff"/>
<path transform="translate(302,924)" d="m0 0" fill="#fff"/>
<path transform="translate(1374,771)" d="m0 0" fill="#fff"/>
<path transform="translate(973,922)" d="m0 0" fill="#fff"/>
<path transform="translate(534,916)" d="m0 0" fill="#fff"/>
<path transform="translate(657,910)" d="m0 0" fill="#fff"/>
<path transform="translate(1364,794)" d="m0 0" fill="#fff"/>
<path transform="translate(1200,764)" d="m0 0" fill="#fff"/>
</svg>
