<?xml version="1.0" encoding="UTF-8"?>
<svg version="1.1" xmlns="http://www.w3.org/2000/svg" width="400" height="239">
<path d="M0 0 C0.70018753 0.32578537 1.40037506 0.65157074 2.1217804 0.98722839 C4.39162541 2.0460783 6.65257913 3.12264317 8.9140625 4.19921875 C11.26381529 5.29985672 13.61574306 6.39575299 15.96775818 7.49154663 C17.54462437 8.22666782 19.12076663 8.96334387 20.69618225 9.7015686 C27.82628107 13.0395055 35.01138631 16.23708458 42.2265625 19.38671875 C43.28214355 19.84860596 44.33772461 20.31049316 45.42529297 20.78637695 C47.79553673 21.8221763 50.1666704 22.85585195 52.5390625 23.88671875 C52.5390625 24.54671875 52.5390625 25.20671875 52.5390625 25.88671875 C47.91647108 26.62495514 43.48037992 27.01483387 38.80078125 27.01953125 C36.95323242 27.02146484 36.95323242 27.02146484 35.06835938 27.0234375 C33.80056641 27.01957031 32.53277344 27.01570313 31.2265625 27.01171875 C29.93943359 27.01558594 28.65230469 27.01945312 27.32617188 27.0234375 C25.48829102 27.02150391 25.48829102 27.02150391 23.61328125 27.01953125 C22.49526123 27.01840332 21.37724121 27.01727539 20.2253418 27.01611328 C17.5390625 26.88671875 17.5390625 26.88671875 15.5390625 25.88671875 C15.5390625 55.91671875 15.5390625 85.94671875 15.5390625 116.88671875 C7.8469043 116.90653809 0.15474609 116.92635742 -7.77050781 116.94677734 C-32.40930512 117.01164571 -57.04806413 117.08618233 -81.68681474 117.16677036 C-85.51679552 117.17928857 -89.34677658 117.19172144 -93.17675781 117.20410156 C-93.93920747 117.20656756 -94.70165713 117.20903355 -95.48721132 117.21157427 C-107.81722516 117.25125001 -120.14724811 117.28402024 -132.4772884 117.31421857 C-145.13803255 117.3453813 -157.79873821 117.38401117 -170.45943904 117.42950881 C-178.26574758 117.45732822 -186.0720281 117.47938948 -193.87837276 117.49398126 C-199.87391602 117.50581366 -205.86937557 117.52805743 -211.86487579 117.55410194 C-214.31736238 117.56314609 -216.76986394 117.56886054 -219.22236633 117.57093239 C-222.58139332 117.5742773 -225.9401599 117.58981487 -229.2991333 117.60824585 C-230.26026197 117.60631112 -231.22139063 117.60437638 -232.21164441 117.60238302 C-238.18678315 117.65110005 -243.8166983 118.32607934 -249.68513179 119.45900881 C-259.19204458 120.92388118 -266.64842586 118.29343264 -274.4609375 112.88671875 C-276.77734375 110.8125 -276.77734375 110.8125 -278.4609375 108.88671875 C-278.4609375 108.22671875 -278.4609375 107.56671875 -278.4609375 106.88671875 C-279.4096875 106.82484375 -280.3584375 106.76296875 -281.3359375 106.69921875 C-290.54620804 105.37009434 -297.25408825 100.04695561 -302.7734375 92.88671875 C-306.00387341 86.83459595 -305.44837553 79.22357831 -303.5546875 72.82421875 C-302.61186727 70.45369933 -301.61171549 68.16258772 -300.4609375 65.88671875 C-299.8009375 65.88671875 -299.1409375 65.88671875 -298.4609375 65.88671875 C-298.19023437 65.29503906 -297.91953125 64.70335938 -297.640625 64.09375 C-292.09903708 53.72620968 -279.97977695 48.39282122 -269.2734375 45.07421875 C-263.72374023 43.42210899 -258.14276906 42.00279281 -252.4609375 40.88671875 C-253.1003125 40.28859375 -253.7396875 39.69046875 -254.3984375 39.07421875 C-257.70886328 35.56316111 -257.6143109 32.51701185 -257.5625 27.828125 C-257.45345108 25.74361303 -257.12160715 23.86872771 -256.4609375 21.88671875 C-255.8009375 21.88671875 -255.1409375 21.88671875 -254.4609375 21.88671875 C-254.2340625 21.30921875 -254.0071875 20.73171875 -253.7734375 20.13671875 C-252.13291289 17.32439085 -250.02314936 15.85701414 -247.4609375 13.88671875 C-267.53312805 9.11708931 -289.54423269 8.11319874 -308.15625 18.421875 C-316.71341919 23.86075372 -323.82058073 29.88465589 -327.09765625 39.81640625 C-328.12459581 45.66885753 -328.18333189 51.75755634 -326.2734375 57.38671875 C-324.25772972 60.16700534 -322.34005619 62.0152916 -319.4609375 63.88671875 C-318.4709375 63.88671875 -317.4809375 63.88671875 -316.4609375 63.88671875 C-316.7909375 63.55671875 -317.1209375 63.22671875 -317.4609375 62.88671875 C-317.74511611 60.18702191 -317.78570941 58.47536784 -316.4609375 56.07421875 C-313.13736615 54.10084826 -310.28035505 54.58359037 -306.4609375 54.88671875 C-304.4609375 56.88671875 -304.4609375 56.88671875 -304.0234375 59.69921875 C-304.4609375 62.88671875 -304.4609375 62.88671875 -306.4609375 65.69921875 C-310.08070076 68.33862946 -313.04486338 69.29410566 -317.4609375 68.88671875 C-323.38033083 67.11745358 -326.99284599 63.88485063 -330.4609375 58.88671875 C-334.29652488 51.39236184 -333.86404407 40.51586562 -331.46875 32.61328125 C-325.78797254 21.41220027 -316.19479818 13.15720546 -304.4609375 8.88671875 C-296.42142042 6.41834799 -288.91916082 5.3694701 -280.5234375 5.44921875 C-279.4509375 5.45171631 -278.3784375 5.45421387 -277.2734375 5.45678711 C-269.11565152 5.59222851 -261.3792444 6.65086874 -253.44946289 8.55102539 C-245.34456035 10.44070957 -238.6699769 9.29392059 -230.6484375 7.32421875 C-218.81050311 4.74854814 -204.5352403 4.45954041 -193.6484375 10.69921875 C-190.9657133 13.38194295 -190.63084362 15.14878417 -190.4609375 18.88671875 C-192.56333031 21.12927108 -194.3736004 22.68457193 -197.45703125 23.2578125 C-208.87181446 23.58504912 -220.73189377 20.20985729 -231.69140625 17.33984375 C-235.83232356 16.66234529 -238.46417147 17.27893459 -242.0234375 19.44921875 C-246.24738836 23.67316961 -248.67118474 28.22078414 -248.8359375 34.26171875 C-248.84192054 37.92613079 -248.84192054 37.92613079 -246.4609375 39.88671875 C-243.99254668 40.05405201 -243.99254668 40.05405201 -241.2109375 39.88671875 C-236.86021291 39.79524491 -233.51455509 40.13380304 -229.4609375 41.88671875 C-229.4609375 42.87671875 -229.4609375 43.86671875 -229.4609375 44.88671875 C-234.2437831 45.61630537 -237.73074439 45.9510122 -242.4609375 44.88671875 C-248.47330172 44.55305499 -252.8434061 45.33159685 -258.3984375 47.57421875 C-259.09211426 47.84459961 -259.78579102 48.11498047 -260.50048828 48.39355469 C-269.67014925 52.02183546 -269.67014925 52.02183546 -277.4609375 57.88671875 C-278.70883897 58.74394836 -279.95913219 59.59770002 -281.2109375 60.44921875 C-287.22152091 64.91890714 -292.00380122 71.45532373 -293.4609375 78.88671875 C-294.20074088 88.38941233 -294.20074088 88.38941233 -290.4609375 96.88671875 C-287.77420249 99.37194863 -285.93546611 100.72854255 -282.4609375 101.88671875 C-282.61949219 101.31050781 -282.77804687 100.73429687 -282.94140625 100.140625 C-284.95435729 91.40774718 -282.70226695 83.11724764 -278.03515625 75.5859375 C-268.84446216 62.97545026 -255.82998878 54.19880725 -240.3203125 51.73217773 C-232.25520982 50.65029648 -226.43713798 50.71106188 -219.1484375 54.69921875 C-215.12116852 57.97722839 -213.80165468 60.47517617 -212.5859375 65.51171875 C-211.94379739 72.92424914 -214.24705522 79.72456452 -218.6484375 85.63671875 C-230.73326179 99.81995395 -246.06884619 106.82257037 -264.4609375 108.88671875 C-266.82718917 109.00683305 -269.09171708 108.99441059 -271.4609375 108.88671875 C-267.43520825 113.53179096 -263.64634775 114.69763899 -257.578125 115.22265625 C-241.8792511 115.55808652 -227.68372698 111.07108561 -215.82421875 100.34375 C-214.00179169 98.39599844 -212.75724824 96.2064327 -211.4609375 93.88671875 C-210.8009375 93.88671875 -210.1409375 93.88671875 -209.4609375 93.88671875 C-208.4709375 91.90671875 -208.4709375 91.90671875 -207.4609375 89.88671875 C-136.5109375 89.88671875 -65.5609375 89.88671875 7.5390625 89.88671875 C7.5390625 67.11671875 7.5390625 44.34671875 7.5390625 20.88671875 C17.9340625 20.39171875 17.9340625 20.39171875 28.5390625 19.88671875 C26.8890625 19.55671875 25.2390625 19.22671875 23.5390625 18.88671875 C23.5390625 18.22671875 23.5390625 17.56671875 23.5390625 16.88671875 C22.2190625 16.88671875 20.8990625 16.88671875 19.5390625 16.88671875 C19.5390625 16.22671875 19.5390625 15.56671875 19.5390625 14.88671875 C18.81992676 14.77030029 18.10079102 14.65388184 17.35986328 14.53393555 C14.42858489 13.86137029 12.10121631 12.85620418 9.40625 11.53125 C8.43429687 11.07427734 7.46234375 10.61730469 6.4609375 10.14648438 C4.44418252 9.18852576 2.43606601 8.21214569 0.4375 7.21679688 C-6.94437902 3.80267783 -11.70346915 3.59198632 -19.4609375 5.88671875 C-20.68039062 6.19351562 -21.89984375 6.5003125 -23.15625 6.81640625 C-24.28804688 7.12835938 -25.41984375 7.4403125 -26.5859375 7.76171875 C-36.77866277 10.44937812 -47.2006122 11.84063063 -57.60961914 13.41577148 C-60.18612424 13.84132832 -62.71313746 14.36412783 -65.26171875 14.9296875 C-71.36912448 16.18436638 -77.53158946 16.56346225 -83.74584961 16.94702148 C-85.76057688 17.07341196 -87.77361779 17.21671813 -89.78710938 17.36132812 C-97.97145833 17.88818302 -106.34862381 18.38918322 -114.4609375 16.88671875 C-114.7909375 16.22671875 -115.1209375 15.56671875 -115.4609375 14.88671875 C-114.57760742 14.82202393 -113.69427734 14.7573291 -112.78417969 14.69067383 C-80.64746159 12.2702396 -48.78637395 7.60425928 -17.97973633 -2.22387695 C-11.07913544 -3.96805853 -6.29945141 -3.0529593 0 0 Z M-232.4609375 12.88671875 C-229.69036646 15.65728979 -226.53505608 16.06639825 -222.8359375 16.94921875 C-222.14886719 17.12259766 -221.46179688 17.29597656 -220.75390625 17.47460938 C-214.45721958 19.01629345 -208.15289019 20.03515822 -201.6484375 20.01171875 C-200.55595703 20.01558594 -200.55595703 20.01558594 -199.44140625 20.01953125 C-197.2489153 19.95606795 -197.2489153 19.95606795 -194.4609375 18.88671875 C-194.1309375 17.89671875 -193.8009375 16.90671875 -193.4609375 15.88671875 C-199.50583086 10.39136115 -205.91550435 9.5173223 -213.7734375 9.57421875 C-214.88513306 9.57615234 -214.88513306 9.57615234 -216.01928711 9.578125 C-221.85505133 9.67995969 -227.03799349 10.64825537 -232.4609375 12.88671875 Z M-268.4609375 72.88671875 C-274.9370354 80.95252277 -278.80618973 87.85560988 -278.76171875 98.3359375 C-278.45316035 100.95267299 -277.78688053 102.6310308 -276.4609375 104.88671875 C-256.54164302 105.74551468 -241.99142953 100.55509593 -226.4609375 87.88671875 C-220.12527471 81.85056002 -216.37997742 76.08729398 -216.0859375 67.13671875 C-216.02258396 63.29216927 -216.02258396 63.29216927 -217.859375 60.05859375 C-219.39919537 58.68988209 -219.39919537 58.68988209 -221.4609375 58.88671875 C-221.4609375 58.22671875 -221.4609375 57.56671875 -221.4609375 56.88671875 C-237.13749304 48.52588913 -257.8103671 61.65070473 -268.4609375 72.88671875 Z M-199.4609375 96.88671875 C-199.4609375 100.84671875 -199.4609375 104.80671875 -199.4609375 108.88671875 C-199.1309375 108.88671875 -198.8009375 108.88671875 -198.4609375 108.88671875 C-197.53249361 104.55398061 -197.53249361 101.21945689 -198.4609375 96.88671875 C-198.7909375 96.88671875 -199.1209375 96.88671875 -199.4609375 96.88671875 Z M-178.4609375 96.88671875 C-178.4609375 100.84671875 -178.4609375 104.80671875 -178.4609375 108.88671875 C-175.8209375 108.88671875 -173.1809375 108.88671875 -170.4609375 108.88671875 C-170.4609375 108.55671875 -170.4609375 108.22671875 -170.4609375 107.88671875 C-172.7709375 107.88671875 -175.0809375 107.88671875 -177.4609375 107.88671875 C-177.4609375 106.23671875 -177.4609375 104.58671875 -177.4609375 102.88671875 C-175.4809375 102.88671875 -173.5009375 102.88671875 -171.4609375 102.88671875 C-171.4609375 102.55671875 -171.4609375 102.22671875 -171.4609375 101.88671875 C-173.4409375 101.88671875 -175.4209375 101.88671875 -177.4609375 101.88671875 C-177.4609375 100.23671875 -177.4609375 98.58671875 -177.4609375 96.88671875 C-177.7909375 96.88671875 -178.1209375 96.88671875 -178.4609375 96.88671875 Z M-155.4609375 96.88671875 C-154.8009375 97.54671875 -154.1409375 98.20671875 -153.4609375 98.88671875 C-153.4609375 98.22671875 -153.4609375 97.56671875 -153.4609375 96.88671875 C-154.1209375 96.88671875 -154.7809375 96.88671875 -155.4609375 96.88671875 Z M-106.4609375 96.88671875 C-106.4609375 100.84671875 -106.4609375 104.80671875 -106.4609375 108.88671875 C-103.8209375 108.88671875 -101.1809375 108.88671875 -98.4609375 108.88671875 C-98.4609375 108.55671875 -98.4609375 108.22671875 -98.4609375 107.88671875 C-100.7709375 107.88671875 -103.0809375 107.88671875 -105.4609375 107.88671875 C-105.4609375 106.23671875 -105.4609375 104.58671875 -105.4609375 102.88671875 C-103.4809375 102.88671875 -101.5009375 102.88671875 -99.4609375 102.88671875 C-99.4609375 102.55671875 -99.4609375 102.22671875 -99.4609375 101.88671875 C-101.4409375 101.88671875 -103.4209375 101.88671875 -105.4609375 101.88671875 C-105.4609375 100.23671875 -105.4609375 98.58671875 -105.4609375 96.88671875 C-105.7909375 96.88671875 -106.1209375 96.88671875 -106.4609375 96.88671875 Z M-80.4609375 96.88671875 C-79.4609375 98.88671875 -79.4609375 98.88671875 -79.4609375 98.88671875 Z M-45.4609375 96.88671875 C-44.8009375 97.54671875 -44.1409375 98.20671875 -43.4609375 98.88671875 C-43.4609375 98.22671875 -43.4609375 97.56671875 -43.4609375 96.88671875 C-44.1209375 96.88671875 -44.7809375 96.88671875 -45.4609375 96.88671875 Z M-26.4609375 96.88671875 C-26.4609375 100.84671875 -26.4609375 104.80671875 -26.4609375 108.88671875 C-26.1309375 108.88671875 -25.8009375 108.88671875 -25.4609375 108.88671875 C-25.4609375 104.92671875 -25.4609375 100.96671875 -25.4609375 96.88671875 C-25.7909375 96.88671875 -26.1209375 96.88671875 -26.4609375 96.88671875 Z M-9.4609375 96.88671875 C-9.4609375 100.84671875 -9.4609375 104.80671875 -9.4609375 108.88671875 C-6.8209375 108.88671875 -4.1809375 108.88671875 -1.4609375 108.88671875 C-1.4609375 108.55671875 -1.4609375 108.22671875 -1.4609375 107.88671875 C-3.7709375 107.88671875 -6.0809375 107.88671875 -8.4609375 107.88671875 C-8.4609375 106.23671875 -8.4609375 104.58671875 -8.4609375 102.88671875 C-6.4809375 102.88671875 -4.5009375 102.88671875 -2.4609375 102.88671875 C-2.4609375 102.55671875 -2.4609375 102.22671875 -2.4609375 101.88671875 C-4.4409375 101.88671875 -6.4209375 101.88671875 -8.4609375 101.88671875 C-8.4609375 100.23671875 -8.4609375 98.58671875 -8.4609375 96.88671875 C-8.7909375 96.88671875 -9.1209375 96.88671875 -9.4609375 96.88671875 Z M-86.4609375 97.88671875 C-85.4609375 100.88671875 -85.4609375 100.88671875 -85.4609375 100.88671875 Z M-43.4609375 98.88671875 C-42.4609375 100.88671875 -42.4609375 100.88671875 -42.4609375 100.88671875 Z M-157.4609375 100.88671875 C-156.4609375 102.88671875 -156.4609375 102.88671875 -156.4609375 102.88671875 Z M-47.4609375 100.88671875 C-46.4609375 102.88671875 -46.4609375 102.88671875 -46.4609375 102.88671875 Z M-196.4609375 102.88671875 C-194.9759375 103.87671875 -194.9759375 103.87671875 -193.4609375 104.88671875 C-193.4609375 104.22671875 -193.4609375 103.56671875 -193.4609375 102.88671875 C-194.4509375 102.88671875 -195.4409375 102.88671875 -196.4609375 102.88671875 Z M-152.4609375 101.88671875 C-152.4609375 102.87671875 -152.4609375 103.86671875 -152.4609375 104.88671875 C-155.4309375 104.39171875 -155.4309375 104.39171875 -158.4609375 103.88671875 C-158.4609375 104.54671875 -158.4609375 105.20671875 -158.4609375 105.88671875 C-155.8209375 106.21671875 -153.1809375 106.54671875 -150.4609375 106.88671875 C-150.7909375 105.23671875 -151.1209375 103.58671875 -151.4609375 101.88671875 C-151.7909375 101.88671875 -152.1209375 101.88671875 -152.4609375 101.88671875 Z M-42.4609375 101.88671875 C-42.4609375 102.87671875 -42.4609375 103.86671875 -42.4609375 104.88671875 C-45.4309375 104.39171875 -45.4309375 104.39171875 -48.4609375 103.88671875 C-48.4609375 104.54671875 -48.4609375 105.20671875 -48.4609375 105.88671875 C-45.8209375 106.21671875 -43.1809375 106.54671875 -40.4609375 106.88671875 C-40.7909375 105.23671875 -41.1209375 103.58671875 -41.4609375 101.88671875 C-41.7909375 101.88671875 -42.1209375 101.88671875 -42.4609375 101.88671875 Z M-79.4609375 104.88671875 C-78.4609375 106.88671875 -78.4609375 106.88671875 -78.4609375 106.88671875 Z M-86.4609375 105.88671875 C-85.4609375 107.88671875 -85.4609375 107.88671875 -85.4609375 107.88671875 Z M-49.4609375 106.88671875 C-48.4609375 108.88671875 -48.4609375 108.88671875 -48.4609375 108.88671875 Z M-40.4609375 106.88671875 C-39.4609375 108.88671875 -39.4609375 108.88671875 -39.4609375 108.88671875 Z M-137.4609375 107.88671875 C-137.4609375 108.21671875 -137.4609375 108.54671875 -137.4609375 108.88671875 C-135.1509375 108.88671875 -132.8409375 108.88671875 -130.4609375 108.88671875 C-130.4609375 108.55671875 -130.4609375 108.22671875 -130.4609375 107.88671875 C-132.7709375 107.88671875 -135.0809375 107.88671875 -137.4609375 107.88671875 Z M-84.4609375 107.88671875 C-80.4609375 108.88671875 -80.4609375 108.88671875 -80.4609375 108.88671875 Z " fill="#FFFFFF" transform="translate(332.4609375,3.11328125)"/>
<path d="M0 0 C7.92 0 15.84 0 24 0 C25.69813148 1.69813148 25.17990878 3.87678791 25.22460938 6.203125 C25.24712769 7.31518311 25.269646 8.42724121 25.29284668 9.57299805 C25.3637302 14.69327004 25.42162056 19.81346877 25.45996094 24.93408203 C25.48214602 27.6310271 25.52376473 30.32656833 25.58300781 33.02294922 C25.66233777 36.91155059 25.69531297 40.7982067 25.71875 44.6875 C25.75174194 45.8847168 25.78473389 47.08193359 25.81872559 48.31542969 C25.80117199 55.71204427 24.58011431 59.87139566 19.70129395 65.49926758 C18 67 18 67 16 67 C15.67 56.44 15.34 45.88 15 35 C14.01 35.495 14.01 35.495 13 36 C13.02731201 37.1238208 13.05462402 38.2476416 13.08276367 39.40551758 C13.17039555 43.62361744 13.1841648 47.8394346 13.17700195 52.05834961 C13.18392628 53.87493878 13.21019547 55.69157111 13.25708008 57.50756836 C13.66620126 74.21718058 13.66620126 74.21718058 8.03059387 80.31242371 C1.97798178 86 1.97798178 86 0 86 C0 57.62 0 29.24 0 0 Z " fill="#FFFFFF" transform="translate(350,31)"/>
<path d="M0 0 C16.83 0 33.66 0 51 0 C51 6.6 51 13.2 51 20 C50.34 20 49.68 20 49 20 C48.68546875 19.25234375 48.3709375 18.5046875 48.046875 17.734375 C47.61890625 16.74953125 47.1909375 15.7646875 46.75 14.75 C46.33234375 13.77546875 45.9146875 12.8009375 45.484375 11.796875 C43.3348346 7.74668835 41.38027001 5.46009 37 4 C34.43217978 3.77268477 31.88442536 3.58417733 29.3125 3.4375 C26.899375 3.293125 24.48625 3.14875 22 3 C21.67 9.6 21.34 16.2 21 23 C23.97 22.34 26.94 21.68 30 21 C30.20496094 20.31292969 30.40992188 19.62585938 30.62109375 18.91796875 C30.89050781 18.01691406 31.15992188 17.11585937 31.4375 16.1875 C31.70433594 15.29417969 31.97117187 14.40085937 32.24609375 13.48046875 C32.80387873 11.64526945 33.39344575 9.81966274 34 8 C34.99 8.33 35.98 8.66 37 9 C37 19.56 37 30.12 37 41 C36.01 41 35.02 41 34 41 C33.01 36.05 33.01 36.05 32 31 C31.34 31 30.68 31 30 31 C29.67 30.34 29.34 29.68 29 29 C26.36 28.01 23.72 27.02 21 26 C21.33 32.27 21.66 38.54 22 45 C34.5016758 44.77125932 34.5016758 44.77125932 44.6875 38.3125 C47.38795081 34.85418074 48.64224433 31.14472782 50 27 C50.99 27.33 51.98 27.66 53 28 C53 34.6 53 41.2 53 48 C35.51 48 18.02 48 0 48 C0.33 47.01 0.66 46.02 1 45 C4.5625 43.8125 4.5625 43.8125 8 43 C8.9965754 35.5612765 9.13833871 28.11840906 9.1875 20.625 C9.20039063 19.66190918 9.21328125 18.69881836 9.2265625 17.70654297 C9.36561612 11.06631547 9.36561612 11.06631547 7 5 C3.46485707 3.62032476 3.46485707 3.62032476 0 3 C0 2.01 0 1.02 0 0 Z " fill="#FFFFFF" transform="translate(277,33)"/>
<path d="M0 0 C18.81 0 37.62 0 57 0 C57 8.25 57 16.5 57 25 C56.01 25 55.02 25 54 25 C53.75765625 24.20335938 53.5153125 23.40671875 53.265625 22.5859375 C50.71438726 14.21918672 50.71438726 14.21918672 46 7 C43.39562767 5.58809436 43.39562767 5.58809436 41 5 C41 4.34 41 3.68 41 3 C40.01 3.33 39.02 3.66 38 4 C37.01 3.67 36.02 3.34 35 3 C34.95058618 8.35683849 34.91427393 13.7135445 34.89013672 19.07055664 C34.88007509 20.89317129 34.8664244 22.71576979 34.84912109 24.53833008 C34.82487979 27.15710435 34.81351862 29.77566531 34.8046875 32.39453125 C34.79436493 33.21025101 34.78404236 34.02597076 34.77340698 34.8664093 C34.7726314 38.77130756 34.78349339 40.67524008 37 44 C39.88595946 44.58481121 39.88595946 44.58481121 43.125 44.6875 C44.22070312 44.75324219 45.31640625 44.81898437 46.4453125 44.88671875 C47.28835938 44.92410156 48.13140625 44.96148437 49 45 C49.33 45.99 49.66 46.98 50 48 C35.81 48 21.62 48 7 48 C7 47.01 7 46.02 7 45 C11.62 44.67 16.24 44.34 21 44 C21.33 30.47 21.66 16.94 22 3 C13.18949183 4.49092222 13.18949183 4.49092222 8 10 C5.36830198 14.83518754 3.56590495 19.48242676 3 25 C2.01 25 1.02 25 0 25 C0 16.75 0 8.5 0 0 Z " fill="#FFFFFF" transform="translate(217,33)"/>
<path d="M0 0 C11.22 0 22.44 0 34 0 C33.67 0.99 33.34 1.98 33 3 C29.7 3.33 26.4 3.66 23 4 C23 17.53 23 31.06 23 45 C37.1144454 45.30988284 37.1144454 45.30988284 44 40 C47.46185278 35.6479565 49.20773253 31.19757566 51 26 C51.99 26 52.98 26 54 26 C54 33.26 54 40.52 54 48 C36.18 48 18.36 48 0 48 C0.33 47.01 0.66 46.02 1 45 C3.31029085 44.25740651 5.645752 43.588562 8 43 C10.01974733 40.98025267 9.16399439 36.86915483 9.16796875 34.09765625 C9.17129715 33.30475693 9.17462555 32.5118576 9.17805481 31.69493103 C9.18312726 30.01448142 9.18546304 28.33402171 9.18530273 26.65356445 C9.18748786 24.07681741 9.20563609 21.50049924 9.22460938 18.92382812 C9.22754345 17.2942723 9.22952815 15.66471444 9.23046875 14.03515625 C9.23765427 13.26115982 9.24483978 12.48716339 9.25224304 11.68971252 C9.39582272 7.38083817 9.39582272 7.38083817 7 4 C4.68234271 3.28072705 2.34904126 2.6090107 0 2 C0 1.34 0 0.68 0 0 Z " fill="#FFFFFF" transform="translate(123,33)"/>
<path d="M0 0 C10.56 0 21.12 0 32 0 C31.67 0.99 31.34 1.98 31 3 C28.68970915 3.74259349 26.354248 4.411438 24 5 C21.98025267 7.01974733 22.83600561 11.13084517 22.83203125 13.90234375 C22.82870285 14.69524307 22.82537445 15.4881424 22.82194519 16.30506897 C22.81687274 17.98551858 22.81453696 19.66597829 22.81469727 21.34643555 C22.81251214 23.92318259 22.79436391 26.49950076 22.77539062 29.07617188 C22.77245655 30.7057277 22.77047185 32.33528556 22.76953125 33.96484375 C22.76234573 34.73884018 22.75516022 35.51283661 22.74775696 36.31028748 C22.60417728 40.61916183 22.60417728 40.61916183 25 44 C27.31765729 44.71927295 29.65095874 45.3909893 32 46 C32 46.66 32 47.32 32 48 C21.44 48 10.88 48 0 48 C0.33 47.01 0.66 46.02 1 45 C3.64 44.67 6.28 44.34 9 44 C9 30.8 9 17.6 9 4 C6.03 3.67 3.06 3.34 0 3 C0 2.01 0 1.02 0 0 Z " fill="#FFFFFF" transform="translate(181,33)"/>
<path d="M0 0 C0.66 0 1.32 0 2 0 C2.31638428 0.7520874 2.63276855 1.5041748 2.95874023 2.27905273 C4.41500845 5.68227966 5.9250915 9.05887107 7.4375 12.4375 C7.93443359 13.62150391 8.43136719 14.80550781 8.94335938 16.02539062 C9.45576172 17.15009766 9.96816406 18.27480469 10.49609375 19.43359375 C10.95169678 20.47572021 11.4072998 21.51784668 11.87670898 22.59155273 C14.46620769 26.07300544 14.46620769 26.07300544 23 26 C23 19.07 23 12.14 23 5 C20.525 4.01 20.525 4.01 18 3 C18 2.34 18 1.68 18 1 C24.6 1 31.2 1 38 1 C37.67 1.99 37.34 2.98 37 4 C35.35 4 33.7 4 32 4 C31.67 11.26 31.34 18.52 31 26 C39.25231224 25.8205342 39.25231224 25.8205342 42.375 23.3125 C44.23986816 20.65864916 45.65887834 17.95046766 47 15 C47.66 15 48.32 15 49 15 C49 19.62 49 24.24 49 29 C39.46379612 29.75869431 30.29632141 30.05859352 20.73828125 29.2578125 C14.49274592 28.82708593 8.25776138 28.92011368 2 29 C1.67 28.01 1.34 27.02 1 26 C2.65 26 4.3 26 6 26 C5.34 24.02 4.68 22.04 4 20 C3.34 20.33 2.68 20.66 2 21 C-0.6723621 21.13415472 -3.32250488 21.04318541 -6 21 C-6 22.32 -6 23.64 -6 25 C-5.34 25.33 -4.68 25.66 -4 26 C-4 26.99 -4 27.98 -4 29 C-7.63 29 -11.26 29 -15 29 C-15.33 28.01 -15.66 27.02 -16 26 C-15.22946289 25.6095752 -14.45892578 25.21915039 -13.66503906 24.81689453 C-10.60126763 22.72816359 -9.80673802 21.29942384 -8.359375 17.9296875 C-7.92882812 16.95128906 -7.49828125 15.97289062 -7.0546875 14.96484375 C-6.62414062 13.94519531 -6.19359375 12.92554688 -5.75 11.875 C-4.87128705 9.85091266 -3.99115618 7.82744008 -3.109375 5.8046875 C-2.72749023 4.90733887 -2.34560547 4.00999023 -1.95214844 3.08544922 C-1 1 -1 1 0 0 Z M-2 9 C-2.99 11.97 -3.98 14.94 -5 18 C-2.69 18 -0.38 18 2 18 C1.01 15.03 0.02 12.06 -1 9 C-1.33 9 -1.66 9 -2 9 Z " fill="#FFFFFF" transform="translate(345,185)"/>
<path d="M0 0 C54.45 0 108.9 0 165 0 C164.67 1.32 164.34 2.64 164 4 C109.88 4 55.76 4 0 4 C0 2.68 0 1.36 0 0 Z " fill="#FFFFFF" transform="translate(1,151)"/>
<path d="M0 0 C54.45 0 108.9 0 165 0 C165 1.32 165 2.64 165 4 C110.88 4 56.76 4 1 4 C0.67 2.68 0.34 1.36 0 0 Z " fill="#FFFFFF" transform="translate(235,151)"/>
<path d="M0 0 C2.15502531 3.23253796 2.46856135 4.25150923 2 8 C0.5 9.8125 0.5 9.8125 -1 11 C0.26941497 14.91402949 1.51167694 16.79072873 5 19 C5.33 17.02 5.66 15.04 6 13 C4.68 12.67 3.36 12.34 2 12 C2 11.01 2 10.02 2 9 C7.28 9 12.56 9 18 9 C17.67 9.99 17.34 10.98 17 12 C16.2575 12.20625 15.515 12.4125 14.75 12.625 C10.43578286 14.78210857 9.04295386 18.77499756 7 23 C10.22791555 25.1519437 11.28400809 25.20086443 15 25 C15.33 22.69 15.66 20.38 16 18 C16.99 18.33 17.98 18.66 19 19 C17.8826463 23.84186604 16.90390587 26.82807648 13 30 C9.96344656 31.51827672 7.36087176 31.16804359 4 31 C2.96875 30.62875 1.9375 30.2575 0.875 29.875 C-2.691202 28.78963417 -3.68957479 29.46590051 -7 31 C-13.15424855 32.53856214 -17.29683172 31.28902673 -23 29 C-23 28.34 -23 27.68 -23 27 C-23.66 26.67 -24.32 26.34 -25 26 C-24.88114002 19.93814099 -24.88114002 19.93814099 -22.55078125 17.45703125 C-19.19524137 14.97495077 -16.23544745 13.38504068 -12 13 C-12.3403125 11.453125 -12.3403125 11.453125 -12.6875 9.875 C-13.04461151 5.44681723 -12.45950578 3.6468534 -10 0 C-6.49397491 -2.90153801 -3.92522883 -1.79195229 0 0 Z M-7 1 C-7.87436418 2.73575649 -7.87436418 2.73575649 -8 5 C-6.14835964 7.75256794 -6.14835964 7.75256794 -4 10 C-3.34 9.34 -2.68 8.68 -2 8 C-2.32198966 4.90073181 -2.32198966 4.90073181 -3 2 C-4.32 1.67 -5.64 1.34 -7 1 Z M-14.125 16.125 C-16.27700929 17.91549131 -16.27700929 17.91549131 -16.5 20.9375 C-16.18672159 24.01999513 -16.18672159 24.01999513 -14.5625 26.4375 C-10.69063701 28.79839207 -7.3107537 27.84741312 -3 27 C-4.37840216 24.16661778 -5.86418386 21.44311194 -7.5 18.75 C-7.9228125 18.04359375 -8.345625 17.3371875 -8.78125 16.609375 C-9.1834375 16.07828125 -9.585625 15.5471875 -10 15 C-12.1061412 14.84403743 -12.1061412 14.84403743 -14.125 16.125 Z " fill="#FFFFFF" transform="translate(207,135)"/>
<path d="M0 0 C4.58328022 -0.05802751 9.16646604 -0.09360593 13.75 -0.125 C15.05195312 -0.14175781 16.35390625 -0.15851563 17.6953125 -0.17578125 C18.94570313 -0.18222656 20.19609375 -0.18867188 21.484375 -0.1953125 C22.63647461 -0.20578613 23.78857422 -0.21625977 24.97558594 -0.22705078 C27.92871171 -0.0053518 29.55013227 0.38937267 32 2 C33.77216964 4.44728188 34.03832249 5.59761381 33.75 8.625 C33 11 33 11 31 13 C28.34462628 13.56520003 25.70855287 13.73788198 23 14 C23 14.66 23 15.32 23 16 C23.91458984 16.13921875 23.91458984 16.13921875 24.84765625 16.28125 C27.52835321 17.17643737 28.02005292 18.10652535 29.4375 20.5 C31.4184424 23.54432885 31.4184424 23.54432885 34.8125 24.9375 C35.534375 24.958125 36.25625 24.97875 37 25 C37 25.99 37 26.98 37 28 C33.13549267 28.7032835 29.83809537 28.93059979 26 28 C22.58534389 24.76590113 20.1784448 21.15714682 18 17 C18 16.34 18 15.68 18 15 C16.02 15 14.04 15 12 15 C12.33 18.3 12.66 21.6 13 25 C14.65 25 16.3 25 18 25 C17.67 25.99 17.34 26.98 17 28 C11.39 28 5.78 28 0 28 C0 27.01 0 26.02 0 25 C1.32 24.67 2.64 24.34 4 24 C4 16.74 4 9.48 4 2 C2.68 2 1.36 2 0 2 C0 1.34 0 0.68 0 0 Z M12 2 C12 5.3 12 8.6 12 12 C13.95766281 12.08082094 15.91626728 12.13910778 17.875 12.1875 C18.96554688 12.22230469 20.05609375 12.25710937 21.1796875 12.29296875 C22.57574219 12.14794922 22.57574219 12.14794922 24 12 C26.36692966 9.15173402 26.36692966 9.15173402 25.625 5.8125 C25.41875 4.884375 25.2125 3.95625 25 3 C22.00519083 2.1276588 19.36424089 1.89170234 16.25 1.9375 C14.8475 1.958125 13.445 1.97875 12 2 Z " fill="#FFFFFF" transform="translate(37,186)"/>
<path d="M0 0 C9.57 0 19.14 0 29 0 C29 3.63 29 7.26 29 11 C28.34 11 27.68 11 27 11 C26.566875 10.05125 26.13375 9.1025 25.6875 8.125 C24.20697799 4.79958063 24.20697799 4.79958063 21 3 C18.66800612 2.92094936 16.33167378 2.91201231 14 3 C13.67 5.97 13.34 8.94 13 12 C17.11295988 10.45624577 17.11295988 10.45624577 18.25 7.375 C18.4975 6.59125 18.745 5.8075 19 5 C19.66 5 20.32 5 21 5 C21 10.94 21 16.88 21 23 C20.34 23 19.68 23 19 23 C18.34 20.69 17.68 18.38 17 16 C15.68 16 14.36 16 13 16 C13 18.97 13 21.94 13 25 C14.6065676 24.74379316 16.2102483 24.46944129 17.8125 24.1875 C18.70582031 24.03667969 19.59914062 23.88585937 20.51953125 23.73046875 C23.23331595 22.93129121 24.27346791 22.20132842 26 20 C27.19027984 17.40084462 27.19027984 17.40084462 28 15 C28.66 15 29.32 15 30 15 C30.02686553 16.97909398 30.04633375 18.95828971 30.0625 20.9375 C30.07410156 22.03964844 30.08570313 23.14179688 30.09765625 24.27734375 C30 27 30 27 29 28 C26.85441173 28.08775605 24.70595579 28.10695219 22.55859375 28.09765625 C21.25341797 28.09443359 19.94824219 28.09121094 18.60351562 28.08789062 C17.2148431 28.07953401 15.82617123 28.07106905 14.4375 28.0625 C13.04492344 28.05748666 11.65234519 28.05292347 10.25976562 28.04882812 C6.8398013 28.03699434 3.41992156 28.0205088 0 28 C0 27.01 0 26.02 0 25 C1.32 25 2.64 25 4 25 C4 17.74 4 10.48 4 3 C2.68 2.67 1.36 2.34 0 2 C0 1.34 0 0.68 0 0 Z " fill="#FFFFFF" transform="translate(143,186)"/>
<path d="M0 0 C4.0302604 2.2724651 6.94042216 4.59704098 8.3125 9.19921875 C9.20406661 14.07497367 8.62755162 17.13540894 5.75 21.3125 C1.61345519 25.48285852 -2.04970314 27.44718176 -7.9375 27.6875 C-13.48716556 27.63070518 -17.10471623 25.94958793 -21.25 22.3125 C-23.69540696 19.15713618 -25.06377563 16.31632389 -25.25 12.3125 C-24.29604694 8.05378098 -22.97874367 5.04124367 -19.875 1.9375 C-13.3239505 -2.1179116 -7.13008199 -3.27957216 0 0 Z M-14.25 3.3125 C-17.06871215 7.74190481 -16.89800908 13.24182895 -16.25 18.3125 C-14.41876883 22.32712218 -13.40555376 23.84536125 -9.3125 25.5 C-6.02832737 25.60493523 -6.02832737 25.60493523 -3.4375 22.9375 C-2.3546875 21.638125 -2.3546875 21.638125 -1.25 20.3125 C-0.92 19.9825 -0.59 19.6525 -0.25 19.3125 C-0.0709429 17.23426348 0.01807871 15.14796283 0.0625 13.0625 C0.09988281 11.92296875 0.13726562 10.7834375 0.17578125 9.609375 C-0.33261165 5.67282816 -1.47769375 4.09496122 -4.25 1.3125 C-8.49139386 -0.42755902 -10.75792395 0.48108699 -14.25 3.3125 Z " fill="#FFFFFF" transform="translate(281.25,186.6875)"/>
<path d="M0 0 C3.83084349 2.61193874 6.65161815 5.67823629 8.75 9.875 C9.22037085 14.67278271 8.77399083 18.16611865 6.14453125 22.30078125 C2.74852056 26.13437315 -1.87317246 27.44155429 -6.625 28.9375 C-11.97498639 28.84525886 -15.86060941 26.84969153 -20.25 23.875 C-23.85157706 19.83420623 -25.25 16.30664959 -25.25 10.875 C-20.17839369 0.73178738 -10.81202896 -3.74262541 0 0 Z M-10.9375 1.25 C-14.3105698 3.62026526 -15.03656366 5.9792307 -16.25 9.875 C-16.84707545 15.44770424 -15.89552989 19.05635628 -13.25 23.875 C-10.71959312 25.96912983 -9.48669397 25.88466098 -6.1875 25.75 C-2.77393742 24.73319413 -1.92564416 23.96171292 -0.25 20.875 C1.53576077 16.16708523 1.25025441 11.32017942 -0.375 6.625 C-3.12276322 2.59494727 -5.95742025 0.55510515 -10.9375 1.25 Z " fill="#FFFFFF" transform="translate(100.25,186.125)"/>
<path d="M0 0 C1.155 0.495 2.31 0.99 3.5 1.5 C3.5 0.84 3.5 0.18 3.5 -0.5 C4.49 -0.5 5.48 -0.5 6.5 -0.5 C6.5 2.8 6.5 6.1 6.5 9.5 C5.51 9.5 4.52 9.5 3.5 9.5 C2.96375 8.55125 2.4275 7.6025 1.875 6.625 C-1.03614018 2.79455239 -2.8285015 2.48066835 -7.37890625 1.62890625 C-9.69008253 1.35603084 -9.69008253 1.35603084 -12.5 2.5 C-13.23323796 4.51508358 -13.23323796 4.51508358 -13.5 6.5 C-12.71496094 6.68175781 -11.92992187 6.86351562 -11.12109375 7.05078125 C3.94723008 10.65608573 3.94723008 10.65608573 7.5 14.875 C8.70306725 18.03305153 8.70933108 19.35573918 7.5 22.5 C4.75195571 26.50756459 1.40187652 27.51067619 -3.18359375 28.39453125 C-6.91316805 28.56434323 -9.21781114 27.20673821 -12.5 25.5 C-13.49 25.5 -14.48 25.5 -15.5 25.5 C-15.83 26.16 -16.16 26.82 -16.5 27.5 C-17.49 27.17 -18.48 26.84 -19.5 26.5 C-19.5 22.54 -19.5 18.58 -19.5 14.5 C-18.51 14.17 -17.52 13.84 -16.5 13.5 C-17.015625 12.984375 -17.53125 12.46875 -18.0625 11.9375 C-19.5 9.5 -19.5 9.5 -19.5625 6 C-18.5 2.5 -18.5 2.5 -15.9375 0.0625 C-10.1815533 -2.55383941 -5.74700776 -2.12212831 0 0 Z M-16.5 13.5 C-16.43021409 16.50079433 -16.23042084 18.69738641 -14.15625 20.9765625 C-9.74766271 24.40323717 -6.05685442 25.40738576 -0.5 25.5 C0.49 24.84 1.48 24.18 2.5 23.5 C2.17 21.85 1.84 20.2 1.5 18.5 C-0.93572059 17.66112944 -3.37333217 16.82873471 -5.8125 16 C-6.50279297 15.76152344 -7.19308594 15.52304688 -7.90429688 15.27734375 C-10.88931489 14.26791737 -13.32658914 13.5 -16.5 13.5 Z " fill="#FFFFFF" transform="translate(225.5,186.5)"/>
<path d="M0 0 C1.155 0.495 2.31 0.99 3.5 1.5 C3.5 0.84 3.5 0.18 3.5 -0.5 C4.49 -0.5 5.48 -0.5 6.5 -0.5 C6.5 2.8 6.5 6.1 6.5 9.5 C5.51 9.5 4.52 9.5 3.5 9.5 C2.96375 8.55125 2.4275 7.6025 1.875 6.625 C-1.03614018 2.79455239 -2.8285015 2.48066835 -7.37890625 1.62890625 C-9.69008253 1.35603084 -9.69008253 1.35603084 -12.5 2.5 C-12.5 3.82 -12.5 5.14 -12.5 6.5 C-11.39140625 6.82613281 -10.2828125 7.15226563 -9.140625 7.48828125 C-7.67695417 7.929259 -6.21341956 8.37068908 -4.75 8.8125 C-4.02039063 9.02583984 -3.29078125 9.23917969 -2.5390625 9.45898438 C1.28699114 10.62419162 4.57543841 11.63467004 7.5 14.5 C8.66379881 18.06898301 8.80920437 19.78394777 7.3125 23.25 C4.98980946 26.13333999 3.010619 27.31623955 -0.68359375 27.765625 C-5.12241421 27.73485328 -8.41842219 27.4207425 -12.5 25.5 C-13.49 25.5 -14.48 25.5 -15.5 25.5 C-15.83 26.16 -16.16 26.82 -16.5 27.5 C-17.49 27.5 -18.48 27.5 -19.5 27.5 C-19.5 23.21 -19.5 18.92 -19.5 14.5 C-18.51 14.17 -17.52 13.84 -16.5 13.5 C-16.17 14.5725 -15.84 15.645 -15.5 16.75 C-13.78699081 20.72547415 -11.54192241 22.21686354 -7.640625 23.921875 C-4.27394891 24.83112329 -1.85819849 24.33954962 1.5 23.5 C1.5 22.18 1.5 20.86 1.5 19.5 C0.85933594 19.31824219 0.21867187 19.13648438 -0.44140625 18.94921875 C-16.26648182 14.35027726 -16.26648182 14.35027726 -19.5 9.5 C-19.625 6 -19.625 6 -18.5 2.5 C-12.84014048 -2.88376881 -6.8679546 -2.53604684 0 0 Z " fill="#FFFFFF" transform="translate(195.5,186.5)"/>
<path d="M0 0 C4.24994263 -0.05805933 8.49978324 -0.09361654 12.75 -0.125 C13.9565625 -0.14175781 15.163125 -0.15851563 16.40625 -0.17578125 C17.56640625 -0.18222656 18.7265625 -0.18867188 19.921875 -0.1953125 C20.99018555 -0.20578613 22.05849609 -0.21625977 23.15917969 -0.22705078 C26.04043048 0.00323138 27.61903435 0.39647893 30 2 C32 5 32 5 31.875 8.5 C31 12 31 12 29.1875 13.875 C25.36101891 15.84290456 22.02425682 16.11874022 17.75 16.0625 C16.85796875 16.05347656 15.9659375 16.04445312 15.046875 16.03515625 C14.37140625 16.02355469 13.6959375 16.01195312 13 16 C13.33 18.64 13.66 21.28 14 24 C15.65 24.33 17.3 24.66 19 25 C18.67 25.99 18.34 26.98 18 28 C12.06 28 6.12 28 0 28 C0 27.01 0 26.02 0 25 C1.65 24.34 3.3 23.68 5 23 C5.02689449 20.04160645 5.04678741 17.08345573 5.0625 14.125 C5.07087891 13.28324219 5.07925781 12.44148437 5.08789062 11.57421875 C5.09111328 10.76855469 5.09433594 9.96289062 5.09765625 9.1328125 C5.10289307 8.38918457 5.10812988 7.64555664 5.11352539 6.87939453 C5.11786636 4.90867432 5.11786636 4.90867432 4 3 C1.97536745 2.34786708 1.97536745 2.34786708 0 2 C0 1.34 0 0.68 0 0 Z M13 2 C13 5.63 13 9.26 13 13 C17.50901363 13.17957899 17.50901363 13.17957899 22 13 C24.29827312 11.12061828 24.29827312 11.12061828 24.3125 8.0625 C24.20549058 5.10036917 24.20549058 5.10036917 23 3.125 C19.74686316 1.29511053 16.68609891 1.81871645 13 2 Z " fill="#FFFFFF" transform="translate(3,186)"/>
<path d="M0 0 C4.42674364 -1.07495967 8.67983146 -1.64820589 13 0 C18.85128199 4.4007771 23.42938051 10.33571913 28 16 C28 11.71 28 7.42 28 3 C25.525 2.505 25.525 2.505 23 2 C23 1.34 23 0.68 23 0 C27.62 0 32.24 0 37 0 C36.67 0.99 36.34 1.98 36 3 C35.01 3.33 34.02 3.66 33 4 C31.76939579 6.46120841 31.7942277 8.25776866 31.68359375 11.0078125 C31.64169922 11.99394531 31.59980469 12.98007813 31.55664062 13.99609375 C31.51732422 15.02863281 31.47800781 16.06117188 31.4375 17.125 C31.39431641 18.16527344 31.35113281 19.20554688 31.30664062 20.27734375 C31.2003712 22.85142528 31.09833417 25.42560508 31 28 C27.14275504 26.58588728 25.13797104 25.60079333 23 22 C23 21.34 23 20.68 23 20 C22.34 20 21.68 20 21 20 C19.44921875 18.42578125 19.44921875 18.42578125 17.6875 16.3125 C14.94170487 13.03605682 12.04953314 9.99704548 9 7 C8.97308315 9.45840605 8.95320198 11.91651882 8.9375 14.375 C8.92912109 15.07367188 8.92074219 15.77234375 8.91210938 16.4921875 C8.8164558 20.37295376 8.8164558 20.37295376 10 24 C12.52733235 24.65555119 12.52733235 24.65555119 15 25 C15 25.99 15 26.98 15 28 C10.05 28 5.1 28 0 28 C0 27.01 0 26.02 0 25 C0.639375 24.87625 1.27875 24.7525 1.9375 24.625 C2.618125 24.41875 3.29875 24.2125 4 24 C5.1482685 21.703463 5.11561175 20.41686833 5.09765625 17.8671875 C5.09443359 17.06152344 5.09121094 16.25585938 5.08789062 15.42578125 C5.07951172 14.58402344 5.07113281 13.74226562 5.0625 12.875 C5.05798828 12.02550781 5.05347656 11.17601562 5.04882812 10.30078125 C5.03702874 8.20049091 5.01909306 6.1002367 5 4 C2.525 3.01 2.525 3.01 0 2 C0 1.34 0 0.68 0 0 Z " fill="#FFFFFF" transform="translate(292,186)"/>
<path d="M0 0 C10.23 0 20.46 0 31 0 C31 3.96 31 7.92 31 12 C30.01 12 29.02 12 28 12 C27.566875 10.88625 27.13375 9.7725 26.6875 8.625 C25.30088881 4.82487666 25.30088881 4.82487666 22 3 C19.66702567 2.95907063 17.33294775 2.95758277 15 3 C14.34 2.67 13.68 2.34 13 2 C13 5.3 13 8.6 13 12 C17.11295988 10.45624577 17.11295988 10.45624577 18.25 7.375 C18.4975 6.59125 18.745 5.8075 19 5 C19.99 5 20.98 5 22 5 C22 9.95 22 14.9 22 20 C21.01 20.33 20.02 20.66 19 21 C18.566875 20.030625 18.13375 19.06125 17.6875 18.0625 C16.2985139 14.72268235 16.2985139 14.72268235 13 14 C13.33 17.3 13.66 20.6 14 24 C15.65 24.33 17.3 24.66 19 25 C19 25.99 19 26.98 19 28 C13.06 28 7.12 28 1 28 C0.67 27.01 0.34 26.02 0 25 C1.65 25 3.3 25 5 25 C5 18.07 5 11.14 5 4 C2.525 3.01 2.525 3.01 0 2 C0 1.34 0 0.68 0 0 Z " fill="#FFFFFF" transform="translate(111,186)"/>
<path d="M0 0 C5.94 0 11.88 0 18 0 C18 0.66 18 1.32 18 2 C16.35 2.66 14.7 3.32 13 4 C13 10.93 13 17.86 13 25 C14.65 25 16.3 25 18 25 C17.67 25.99 17.34 26.98 17 28 C11.39 28 5.78 28 0 28 C0 27.01 0 26.02 0 25 C1.32 24.67 2.64 24.34 4 24 C4 17.07 4 10.14 4 3 C2.68 2.67 1.36 2.34 0 2 C0 1.34 0 0.68 0 0 Z " fill="#FFFFFF" transform="translate(236,186)"/>
<path d="M0 0 C1.32 0 2.64 0 4 0 C5.32 2.64 6.64 5.28 8 8 C8.47179687 7.13375 8.47179687 7.13375 8.953125 6.25 C9.59507813 5.13625 9.59507813 5.13625 10.25 4 C10.66765625 3.2575 11.0853125 2.515 11.515625 1.75 C12.00546875 1.1725 12.4953125 0.595 13 0 C14.32 0 15.64 0 17 0 C17 5.28 17 10.56 17 16 C12 15 12 15 11 14 C10.67 14.66 10.34 15.32 10 16 C8.68 16 7.36 16 6 16 C5.67 15.01 5.34 14.02 5 13 C4.67 13.99 4.34 14.98 4 16 C2.35 15.67 0.7 15.34 -1 15 C-1.02693575 12.87506859 -1.04636628 10.75004088 -1.0625 8.625 C-1.07410156 7.44164062 -1.08570312 6.25828125 -1.09765625 5.0390625 C-1 2 -1 2 0 0 Z M12 10 C13 12 13 12 13 12 Z " fill="#FFFFFF" transform="translate(72,223)"/>
<path d="M0 0 C1.65 0 3.3 0 5 0 C6.32 2.64 7.64 5.28 9 8 C10.32 5.36 11.64 2.72 13 0 C14.65 0 16.3 0 18 0 C18 5.28 18 10.56 18 16 C16.68 16 15.36 16 14 16 C13.34 15.34 12.68 14.68 12 14 C11.67 14.66 11.34 15.32 11 16 C9.68 16 8.36 16 7 16 C6.67 15.01 6.34 14.02 6 13 C5.67 13.99 5.34 14.98 5 16 C3.68 16 2.36 16 1 16 C0.67 10.72 0.34 5.44 0 0 Z M13 10 C14 12 14 12 14 12 Z " fill="#FFFFFF" transform="translate(239,223)"/>
<path d="M0 0 C1.875 1.375 1.875 1.375 3 3 C3 3.99 3 4.98 3 6 C1.68 6 0.36 6 -1 6 C-1 5.34 -1 4.68 -1 4 C-2.98 4.33 -4.96 4.66 -7 5 C-7 6.98 -7 8.96 -7 11 C-6.34 11 -5.68 11 -5 11 C-5 9.68 -5 8.36 -5 7 C-2.03 7 0.94 7 4 7 C4 9.97 4 12.94 4 16 C2.08458862 16.10841951 0.16740227 16.18578079 -1.75 16.25 C-3.35101563 16.31960937 -3.35101563 16.31960937 -4.984375 16.390625 C-8 16 -8 16 -10.33203125 14.16796875 C-12.49184862 11.36071198 -12.92788519 9.53362583 -13 6 C-11.76356597 3.13667909 -10.66847461 1.50711867 -8.1875 -0.375 C-5.13006649 -1.24855243 -3.04430038 -0.84204053 0 0 Z " fill="#FFFFFF" transform="translate(196,223)"/>
<path d="M0 0 C2.25 0.125 2.25 0.125 5 1 C7.3125 4.0625 7.3125 4.0625 9 7 C9.33 4.69 9.66 2.38 10 0 C11.32 0 12.64 0 14 0 C14 5.28 14 10.56 14 16 C12.35 16 10.7 16 9 16 C6.6875 13 6.6875 13 5 10 C4.67 11.98 4.34 13.96 4 16 C2.35 15.67 0.7 15.34 -1 15 C-1.02693575 12.87506859 -1.04636628 10.75004088 -1.0625 8.625 C-1.07410156 7.44164062 -1.08570313 6.25828125 -1.09765625 5.0390625 C-1 2 -1 2 0 0 Z " fill="#FFFFFF" transform="translate(130,223)"/>
<path d="M0 0 C5 1 5 1 7.3125 4.0625 C7.869375 5.031875 8.42625 6.00125 9 7 C9.33 4.69 9.66 2.38 10 0 C11.32 0 12.64 0 14 0 C14 5.28 14 10.56 14 16 C12.35 16 10.7 16 9 16 C6.6875 13 6.6875 13 5 10 C4.67 11.98 4.34 13.96 4 16 C2.68 16 1.36 16 0 16 C0 10.72 0 5.44 0 0 Z " fill="#FFFFFF" transform="translate(297,223)"/>
<path d="M0 0 C3.96 0 7.92 0 12 0 C12 1.32 12 2.64 12 4 C9.36 4 6.72 4 4 4 C4 4.66 4 5.32 4 6 C6.31 6 8.62 6 11 6 C11 7.32 11 8.64 11 10 C8.69 10 6.38 10 4 10 C4 10.66 4 11.32 4 12 C6.31 12 8.62 12 11 12 C11.33 13.32 11.66 14.64 12 16 C8.04 16 4.08 16 0 16 C0 10.72 0 5.44 0 0 Z " fill="#FFFFFF" transform="translate(271,223)"/>
<path d="M0 0 C3.96 0 7.92 0 12 0 C11.67 1.32 11.34 2.64 11 4 C8.69 4 6.38 4 4 4 C4 4.66 4 5.32 4 6 C6.31 6 8.62 6 11 6 C11 7.32 11 8.64 11 10 C8.69 10 6.38 10 4 10 C4.33 10.66 4.66 11.32 5 12 C6.98 12 8.96 12 11 12 C11.33 13.32 11.66 14.64 12 16 C8.04 16 4.08 16 0 16 C0 10.72 0 5.44 0 0 Z " fill="#FFFFFF" transform="translate(214,223)"/>
<path d="M0 0 C1.65 0 3.3 0 5 0 C5.83719383 2.29032311 6.6698929 4.58210957 7.5 6.875 C7.73847656 7.52597656 7.97695312 8.17695313 8.22265625 8.84765625 C10 13.7734375 10 13.7734375 10 16 C8.35 15.67 6.7 15.34 5 15 C5 14.34 5 13.68 5 13 C2.52733235 13.34444881 2.52733235 13.34444881 0 14 C-0.33 14.66 -0.66 15.32 -1 16 C-2.65 15.67 -4.3 15.34 -6 15 C-5.18872921 12.87453041 -4.37594602 10.74963805 -3.5625 8.625 C-3.11003906 7.44164062 -2.65757812 6.25828125 -2.19140625 5.0390625 C-1 2 -1 2 0 0 Z M2 6 C1.67 6.99 1.34 7.98 1 9 C1.66 9 2.32 9 3 9 C2.67 8.01 2.34 7.02 2 6 Z " fill="#FFFFFF" transform="translate(162,223)"/>
<path d="M0 0 C2.32421875 0.09765625 2.32421875 0.09765625 5 1 C6.58203125 3.87109375 6.58203125 3.87109375 7.8125 7.4375 C8.23144531 8.61183594 8.65039062 9.78617188 9.08203125 10.99609375 C10 14 10 14 10 16 C8.35 15.67 6.7 15.34 5 15 C5 14.34 5 13.68 5 13 C2.52733235 13.34444881 2.52733235 13.34444881 0 14 C-0.33 14.66 -0.66 15.32 -1 16 C-2.32 16 -3.64 16 -5 16 C-4.39363767 10.23955788 -2.24341721 5.27985631 0 0 Z M2 7 C1.67 7.66 1.34 8.32 1 9 C1.66 9 2.32 9 3 9 C2.67 8.34 2.34 7.68 2 7 Z " fill="#FFFFFF" transform="translate(107,223)"/>
<path d="M0 0 C4.29 0 8.58 0 13 0 C13 1.32 13 2.64 13 4 C11.68 4 10.36 4 9 4 C9 7.96 9 11.92 9 16 C7.68 16 6.36 16 5 16 C5 12.04 5 8.08 5 4 C3.35 4 1.7 4 0 4 C0 2.68 0 1.36 0 0 Z " fill="#FFFFFF" transform="translate(324,223)"/>
</svg>
